<svg xmlns="http://www.w3.org/2000/svg" xmlns:xlink="http://www.w3.org/1999/xlink" viewBox="0 0 151.81 94.45"><defs><style>.cls-1{fill:none;}.cls-2{clip-path:url(#clip-path);}.cls-3{fill:#94775c;}</style><clipPath id="clip-path" transform="translate(0 0)"><rect class="cls-1" width="151.81" height="94.44"/></clipPath></defs><g id="Calque_2" data-name="Calque 2"><g id="Calque_1-2" data-name="Calque 1"><g class="cls-2"><path class="cls-3" d="M62,76.58h1.63a5.28,5.28,0,0,0,1.55-.22,3.62,3.62,0,0,0,1.28-.66,3.31,3.31,0,0,0,.88-1.11A3.62,3.62,0,0,0,67.66,73,4.48,4.48,0,0,0,67.51,72,3.29,3.29,0,0,0,67,70.8a3.44,3.44,0,0,0-1.14-.93,4,4,0,0,0-1.88-.38H62Zm-1.29-8.31H64a6.28,6.28,0,0,1,1.77.23,5,5,0,0,1,1.32.61A3.72,3.72,0,0,1,68,70a4.42,4.42,0,0,1,.59,1,5.22,5.22,0,0,1,.31,1A5.72,5.72,0,0,1,69,73a4.87,4.87,0,0,1-.33,1.77,4.52,4.52,0,0,1-1,1.52,4.81,4.81,0,0,1-1.63,1.07,5.83,5.83,0,0,1-2.25.4H60.71Z" transform="translate(0 0)"/></g><polygon class="cls-3" points="75.19 68.28 81.33 68.28 81.33 69.49 76.48 69.49 76.48 72.32 81 72.32 81 73.53 76.48 73.53 76.48 76.58 81.58 76.58 81.58 77.8 75.19 77.8 75.19 68.28"/><g class="cls-2"><path class="cls-3" d="M88,75.8a2.15,2.15,0,0,0,.89.78,2.81,2.81,0,0,0,1.13.25,2.5,2.5,0,0,0,.65-.1,2,2,0,0,0,.62-.31,1.76,1.76,0,0,0,.45-.49,1.41,1.41,0,0,0,.17-.69,1,1,0,0,0-.35-.84,3.06,3.06,0,0,0-.86-.48c-.35-.13-.73-.26-1.13-.38A4.29,4.29,0,0,1,88.43,73a2.65,2.65,0,0,1-.87-.86,2.77,2.77,0,0,1-.35-1.48,2.47,2.47,0,0,1,.18-.88A2.4,2.4,0,0,1,88,69a3.35,3.35,0,0,1,1-.66A3.84,3.84,0,0,1,90.44,68a4.93,4.93,0,0,1,1.49.22,2.56,2.56,0,0,1,1.25.87l-1.05,1a1.72,1.72,0,0,0-.69-.61,2.17,2.17,0,0,0-1-.23,2.58,2.58,0,0,0-.9.14,1.61,1.61,0,0,0-.57.37,1.25,1.25,0,0,0-.3.47,1.49,1.49,0,0,0-.09.47,1.2,1.2,0,0,0,.35.93,2.67,2.67,0,0,0,.87.53,11.62,11.62,0,0,0,1.13.36,5.13,5.13,0,0,1,1.13.45,2.56,2.56,0,0,1,.86.78,2.25,2.25,0,0,1,.35,1.35A2.78,2.78,0,0,1,93,76.33a2.82,2.82,0,0,1-.7.93,3.13,3.13,0,0,1-1,.57A4,4,0,0,1,90,78a4.64,4.64,0,0,1-1.74-.33,2.76,2.76,0,0,1-1.3-1Z" transform="translate(0 0)"/></g><rect class="cls-3" x="99.49" y="68.28" width="1.29" height="9.52"/><g class="cls-2"><path class="cls-3" d="M115.63,72.47v4.69a3.87,3.87,0,0,1-.79.38,7,7,0,0,1-.92.27,6.35,6.35,0,0,1-1,.17A7.59,7.59,0,0,1,112,78a5.44,5.44,0,0,1-2.16-.41,4.78,4.78,0,0,1-1.6-1.09,4.64,4.64,0,0,1-1-1.59,5.31,5.31,0,0,1-.35-1.91,5.36,5.36,0,0,1,.37-2,4.9,4.9,0,0,1,1-1.59,4.47,4.47,0,0,1,1.56-1,5.07,5.07,0,0,1,2-.39,6,6,0,0,1,2.15.33,3.86,3.86,0,0,1,1.39.91l-.91,1a3.46,3.46,0,0,0-1.25-.79,4.53,4.53,0,0,0-1.38-.22,3.38,3.38,0,0,0-1.48.31,3.43,3.43,0,0,0-1.13.81,3.49,3.49,0,0,0-.73,1.2,4.26,4.26,0,0,0-.25,1.48,3.87,3.87,0,0,0,.28,1.49,3.71,3.71,0,0,0,.78,1.21,3.53,3.53,0,0,0,1.17.8,3.69,3.69,0,0,0,1.46.29,6.74,6.74,0,0,0,1.3-.13,3.71,3.71,0,0,0,1-.37V73.68h-2.11V72.47Z" transform="translate(0 0)"/></g><polygon class="cls-3" points="122.29 68.28 123.98 68.28 129.23 76.1 129.25 76.1 129.25 68.28 130.54 68.28 130.54 77.8 128.9 77.8 123.61 69.97 123.58 69.97 123.58 77.8 122.29 77.8 122.29 68.28"/><g class="cls-2"><path class="cls-3" d="M29.69,75.2l-.82,1.57A40.9,40.9,0,0,1,23.12,85a23.87,23.87,0,0,1-6.59,5,27.85,27.85,0,0,1-4.93,1.94,18.35,18.35,0,0,1-4.84.74H6.4a7.32,7.32,0,0,1-2.82-.48A2.5,2.5,0,0,1,2,90.68,3,3,0,0,1,2.74,88,15.17,15.17,0,0,1,6.19,84.8,28.35,28.35,0,0,1,9,83.07c1.13-.63,2.4-1.28,3.77-1.95s2.91-1.37,4.48-2,3.27-1.35,4.89-2l2.37-.86c1-.36,1.86-.7,2.6-1s1.41-.57,2-.76l.42-.13.76-.21Zm26-65.07c.53-2.73.49-4.71-.13-5.88h0a6.73,6.73,0,0,0-2.28-2.53A10.81,10.81,0,0,0,47.58,0C45-.17,41.46.48,37,1.94A43.62,43.62,0,0,0,19,15.17a58.76,58.76,0,0,0-11,19.15c-1.93,6.15-2.17,11-.73,14.53a11.6,11.6,0,0,0,7.52,6.94,12.73,12.73,0,0,0,8.18-.71,42.05,42.05,0,0,0,8.82-4.65,38.65,38.65,0,0,0,6.19-5c2.69-2.75,3.44-3.24,3.77-3.37A.63.63,0,0,1,42,42a.58.58,0,0,1,.36.13c.25.24.33.72-.14,2.26-.17.54-.4,1.21-.69,2l-.08.12-.2.6c-.17.42-.39,1-.66,1.62-.19.48-1.14,3.11-1.85,5.15l-.12.3c-.12.31-.23.62-.36.93-.56,1.44-1.13,2.9-1.68,4.33s-1.16,3-1.72,4.31-1.09,2.65-1.53,3.76-.82,2-1.15,2.74c-.16.38-.39.88-.52,1.14l0,.09-.08,0a26,26,0,0,1-2.44,1.06c-1.6.64-3.83,1.5-6.44,2.48-8.76,3.27-14.95,6.3-18.4,9a17.61,17.61,0,0,0-2.07,2A11.86,11.86,0,0,0,.68,87.78,4.27,4.27,0,0,0,.11,91a4.29,4.29,0,0,0,2,2.5,8.46,8.46,0,0,0,3.67.93c.46,0,.89,0,1.33,0A21.58,21.58,0,0,0,10.51,94a28.69,28.69,0,0,0,5.17-1.6,23.77,23.77,0,0,0,4.85-2.68,29.94,29.94,0,0,0,5.94-5.87,58.75,58.75,0,0,0,5.5-9c.24-.52.45-1,.64-1.3s.23-.43.27-.52l.06-.11.12,0,2.74-1.1,2.37-.93c.76-.29,1.45-.56,2-.77,1.46-.54,2.7-1,3.67-1.44a8.2,8.2,0,0,0,1.76-.92,3.65,3.65,0,0,0,.76-.82,3,3,0,0,0,.38-.76.35.35,0,0,0,0-.3.59.59,0,0,0-.42,0,35.65,35.65,0,0,0-3.46,1.22c-.58.25-1.27.54-2,.83l-2,.78-1.72.6c-.64.23-1.09.41-1.4.55a7.91,7.91,0,0,1-.85.34l-.67.23.39-1.08c.17-.44.39-1,.73-1.85s.65-1.6,1.12-2.79.9-2.25,1.3-3.18c1.16-3,2.08-5.33,2.8-7.21s1.41-3.72,2-5.38c.41-1.15.83-2.37,1.3-3.82l-.08.06.41-1.08c.74-1.94,1.4-3.67,2-5.15.53-1.33.85-2.16.94-2.4l.06-.16a.43.43,0,0,1,0-.14l.21-.55a2.21,2.21,0,0,0,.13-.59,1.21,1.21,0,0,0-.09-.52.63.63,0,0,0-.36-.31,1.48,1.48,0,0,0-1.32,0,4.18,4.18,0,0,0-1.23,1.25c-.33.51-1.21,1.62-2.69,3.37a66.2,66.2,0,0,1-5.52,5.68A41.59,41.59,0,0,1,29.13,50,21.49,21.49,0,0,1,18.67,53H18a9,9,0,0,1-7.91-4.91C9,46,8.68,42.9,9.17,39.07a38.17,38.17,0,0,1,4.65-13A63.69,63.69,0,0,1,25.58,11.25h0l.12-.12c.19-.15.63-.5,1.34-1l.26-.22.07,0,0-.19.23,0a46.66,46.66,0,0,1,5.22-3.41A34.26,34.26,0,0,1,40.3,3c4.17-1.09,7.43-1,9.68.41A5.63,5.63,0,0,1,53,9.15a12,12,0,0,1-3,6.59A15.63,15.63,0,0,1,42.8,20.4,28.84,28.84,0,0,1,35,21.76H34.9c-1.86,0-2.8,0-3,0l-.24,0a.82.82,0,0,1-.24,0,1.91,1.91,0,0,0-.61,0,2.61,2.61,0,0,0-.72.26.85.85,0,0,0-.39.53.7.7,0,0,0,0,.51.82.82,0,0,0,.54.3,10.47,10.47,0,0,0,2.8.18,38.24,38.24,0,0,0,7.33-.82A23.88,23.88,0,0,0,50.47,18.2c2.92-2.62,4.67-5.34,5.2-8.07" transform="translate(0 0)"/><path class="cls-3" d="M131.86,46.2v0a8.15,8.15,0,0,1-.93,2.14,8.44,8.44,0,0,1-2.06,2.3,12.54,12.54,0,0,1-3.87,2,11.56,11.56,0,0,1-2.84.49,2.69,2.69,0,0,1-.38,0,3.1,3.1,0,0,1-.78-.09.82.82,0,0,1-.48-.36.89.89,0,0,1,0-.7,5.09,5.09,0,0,1,1.35-1.63,18.88,18.88,0,0,1,2.29-1.72c.91-.58,1.84-1.14,2.78-1.66s2-1.09,3.34-1.77l.52-.29a2.55,2.55,0,0,1,.48-.17.68.68,0,0,1,.55.07l.07.06c.15.18.18.43,0,1.32m-24.35-.47a9.54,9.54,0,0,1-1.07,2.45,9.37,9.37,0,0,1-2.36,2.61,14.27,14.27,0,0,1-4.42,2.26,13,13,0,0,1-3.22.57,2.75,2.75,0,0,1-.4,0,2.94,2.94,0,0,1-.93-.13.78.78,0,0,1-.5-.39.94.94,0,0,1,0-.74,5.72,5.72,0,0,1,1.52-1.85,22.37,22.37,0,0,1,2.65-1.92c1.06-.68,2.12-1.32,3.17-1.92s2.32-1.27,3.83-2a5.13,5.13,0,0,1,.61-.33,2.41,2.41,0,0,1,.5-.19.73.73,0,0,1,.59,0l.07.06c.17.2.22.5,0,1.49M83.43,36.44a30.06,30.06,0,0,1-.58,3.81,10.14,10.14,0,0,1-.75,2.45,2.24,2.24,0,0,1-1.48,1.1,1.86,1.86,0,0,1-.33,0,3.58,3.58,0,0,1-2.05-.93,3.83,3.83,0,0,1-1.1-1.32,6.7,6.7,0,0,1-.79-2.9.78.78,0,0,1,.23-.63,2,2,0,0,1,.51-.33,1.49,1.49,0,0,1,.28-.13,2.28,2.28,0,0,0,.55-.35.91.91,0,0,0,.3-.6.59.59,0,0,0-.13-.44,1.11,1.11,0,0,0-.45-.19L77.52,36a.57.57,0,0,1-.34-.24,1.14,1.14,0,0,1-.05-.9,6.88,6.88,0,0,1,1.26-2.2,3.07,3.07,0,0,1,2.67-1.4,2.67,2.67,0,0,1,2.14,1.95,8.48,8.48,0,0,1,.23,3.26M78.65,47.13a5.46,5.46,0,0,1-2,1.41,4.14,4.14,0,0,1-1.65.35h-.25c-.75,0-1.29-.57-1.59-1.57a10.61,10.61,0,0,1,.35-4.72c.12-.32.21-.55.29-.73a4.48,4.48,0,0,1,.23-.49c.12-.19.25-.36.47-.36s.44.36.52.65A7.62,7.62,0,0,0,75.52,43a3.39,3.39,0,0,0,1.16,1.32,6,6,0,0,0,1.85,1l.13,0,.23.09a.59.59,0,0,1,.36.35c.13.33-.06.77-.6,1.4m72-13c-.76.5-2.19,1.3-4.25,2.38s-4,2-5.83,2.87c-.85.37-1.63.72-2.3,1-2.21,1-3.42,1.53-3.8,1.63a1.87,1.87,0,0,1-.87-.06,2.49,2.49,0,0,1-1.12-.79l-.85-.76a24.1,24.1,0,0,1-2.55-2.41,4.14,4.14,0,0,1-1.33-3,4.49,4.49,0,0,1,1.93-2.92,13,13,0,0,1,3.57-1.78,2.63,2.63,0,0,1,2.07-.13,1.31,1.31,0,0,1,.71,1.16,3.57,3.57,0,0,1-.18,1.29,6.87,6.87,0,0,1-.57,1.11,14.55,14.55,0,0,1-.9,1.25,7.84,7.84,0,0,0-.47.69,1.9,1.9,0,0,0-.21.56.34.34,0,0,0,.07.32c.2.26.61.25,1.22,0a5.61,5.61,0,0,0,2.2-2.45,7.19,7.19,0,0,0,1.06-3.72,2.15,2.15,0,0,0-1.35-2.08,6.59,6.59,0,0,0-3.32.17,16.46,16.46,0,0,0-4.41,1.78,3.38,3.38,0,0,0-.48.27l-.24.17-.41.29c-1.1.75-2.55,1.71-4.31,2.83s-3.71,2.31-5.52,3.32-3.57,1.91-5,2.6a15.26,15.26,0,0,1-2.7,1.15,1.82,1.82,0,0,1-.94-.06,3.51,3.51,0,0,1-1.25-.88c-.2-.21-.51-.5-1-.9a28.6,28.6,0,0,1-2.91-2.74,4.61,4.61,0,0,1-1.5-3.36,5,5,0,0,1,2.17-3.29,16,16,0,0,1,4.09-2.07,3.14,3.14,0,0,1,2.3-.11,1.5,1.5,0,0,1,.81,1.28,3.59,3.59,0,0,1-.23,1.47,6.39,6.39,0,0,1-.62,1.26,17,17,0,0,1-1,1.43,8.71,8.71,0,0,0-.54.79,1.82,1.82,0,0,0-.24.62.63.63,0,0,0,.1.48c.24.28.73.26,1.45-.07A6.77,6.77,0,0,0,113.74,32a8.46,8.46,0,0,0,1.2-4.31,2.5,2.5,0,0,0-1.59-2.43c-1.23-.35-3.11-.11-5.58.73a14.58,14.58,0,0,0-6.06,3.7,5.53,5.53,0,0,0-1.52,4.44,6.72,6.72,0,0,0,.69,2l.12.21-.16.18A26.05,26.05,0,0,1,98,39.19a33.13,33.13,0,0,1-6,4A14.9,14.9,0,0,1,86,44.86H85.9c-1.11,0-1.8-.23-2.09-.68a1.16,1.16,0,0,1,0-1.15,20.19,20.19,0,0,0,1.77-4.77,11.43,11.43,0,0,0-.1-6.48,4,4,0,0,0-3.21-2.38,5.75,5.75,0,0,0-4.71,1.52c-1.35,1.14-2.27,3.14-2.71,6l-.06.13A77.18,77.18,0,0,1,69.55,43c-1.44,1.52-3.08,3.09-4.87,4.66a26.64,26.64,0,0,1-5.18,3.68c-1.74.9-3.14,1-4.18.24C54,50.1,53.9,47.39,55,43.23a98.31,98.31,0,0,1,4.49-12.64c1.83-4.33,3.66-8.47,5.45-12.31s3-6.51,3.77-7.92l.12-.26c.66-1.29,1.18-2.23,1.6-2.89.27-.42.56-.79.93-.7s.38.26.42.63a1,1,0,0,0,.36.68.58.58,0,0,0,.56.13c.18,0,.34-.25.46-.61a5,5,0,0,0,.11-1.63,3,3,0,0,0-.47-1.46c-.14-.21-.38-.42-1-.24a3.46,3.46,0,0,0-1.22.72,8.23,8.23,0,0,0-1.08,1.14c-.32.41-.67.93-1,1.53-3.08,5.45-6,11.28-8.71,17.33s-5,11.66-6.71,16.59c-1.58,4.8-1.78,8.36-.59,10.58s2.91,2.83,5.32,2a22.29,22.29,0,0,0,6.75-4.2,76.62,76.62,0,0,0,5.65-5.55l.93-1-.33,1.31A7.72,7.72,0,0,0,70.56,47c.33,2.09,1.25,3.23,2.83,3.48A6.41,6.41,0,0,0,78,49.52a13.58,13.58,0,0,0,2.43-2,5.73,5.73,0,0,1,1-.85,1.56,1.56,0,0,1,1.12-.24,12.28,12.28,0,0,0,3.66-.11,24.1,24.1,0,0,0,7.06-2.43,26,26,0,0,0,5.23-3.52,27.44,27.44,0,0,0,3-2.95l.23-.27.26.24.08.08c.61.57,1.2,1.11,1.8,1.65s1.12,1,1.53,1.38a4,4,0,0,1,.79.92.79.79,0,0,1-.12.95,2.71,2.71,0,0,1-.8.49l-.24.09c-.6.27-1.8.88-3.57,1.79a31.9,31.9,0,0,0-5,3.18,22.09,22.09,0,0,0-3.61,3.35,3.33,3.33,0,0,0-.85,2.85,2,2,0,0,0,1,1.29c1.41.79,4.13.6,8.11-.55a16.13,16.13,0,0,0,6.24-3.74,9.25,9.25,0,0,0,2.57-4,11.81,11.81,0,0,0,.2-1.77,4.25,4.25,0,0,1,.31-1.82,3.74,3.74,0,0,1,1.83-1.63c1-.51,2.71-1.5,5.23-2.94s5-2.93,7.52-4.44l.61-.37-.09.71a4.29,4.29,0,0,0,.28,2.35A4.87,4.87,0,0,0,127,39c.56.53,1.12,1,1.54,1.41s1,.84,1.35,1.2a2.29,2.29,0,0,1,.71.88.76.76,0,0,1-.13.82,2.29,2.29,0,0,1-.71.44l-.18.07c-.56.24-1.62.77-3.15,1.57a28.56,28.56,0,0,0-4.31,2.78A19.91,19.91,0,0,0,119,51.1a2.78,2.78,0,0,0-.75,2.44,1.76,1.76,0,0,0,.87,1.1c1.23.68,3.59.51,7-.49a13.73,13.73,0,0,0,5.43-3.24,8,8,0,0,0,2.23-3.52,9.9,9.9,0,0,0,.18-1.53,2.93,2.93,0,0,1,1.87-3.07l3.25-1.61c1.64-.77,3.44-1.66,5.35-2.62s3.6-1.86,5-2.65c1.85-1,2.2-1.44,2.26-1.56.09-.32.09-.56,0-.6s-.37-.06-1.07.42" transform="translate(0 0)"/></g></g></g></svg>